<svg aria-hidden="true" style="position: absolute; width: 0; height: 0; overflow: hidden;" version="1.1" xmlns="http://www.w3.org/2000/svg" xmlns:xlink="http://www.w3.org/1999/xlink">
<defs>
<symbol id="icon-trophy" viewBox="0 0 26 28">
<path d="M7.156 13.797c-0.656-1.437-1.156-3.344-1.156-5.797h-4v1.5c0 1.531 2.078 3.656 5.156 4.297zM24 9.5v-1.5h-4c0 2.453-0.5 4.359-1.156 5.797 3.078-0.641 5.156-2.766 5.156-4.297zM26 7.5v2c0 2.969-3.594 6.25-8.469 6.484-0.625 0.797-1.203 1.266-1.484 1.484-0.828 0.75-1.047 1.531-1.047 2.531s0.5 2 2 2 3 1 3 2.5v1c0 0.281-0.219 0.5-0.5 0.5h-13c-0.281 0-0.5-0.219-0.5-0.5v-1c0-1.5 1.5-2.5 3-2.5s2-1 2-2-0.219-1.781-1.047-2.531c-0.281-0.219-0.859-0.688-1.484-1.484-4.875-0.234-8.469-3.516-8.469-6.484v-2c0-0.828 0.672-1.5 1.5-1.5h4.5v-1.5c0-1.375 1.125-2.5 2.5-2.5h9c1.375 0 2.5 1.125 2.5 2.5v1.5h4.5c0.828 0 1.5 0.672 1.5 1.5z"></path>
</symbol>
<symbol id="icon-office" viewBox="0 0 32 32">
<path d="M0 32h16v-32h-16v32zM10 4h4v4h-4v-4zM10 12h4v4h-4v-4zM10 20h4v4h-4v-4zM2 4h4v4h-4v-4zM2 12h4v4h-4v-4zM2 20h4v4h-4v-4zM18 10h14v2h-14zM18 32h4v-8h6v8h4v-18h-14z"></path>
</symbol>
<symbol id="icon-books" viewBox="0 0 36 32">
<path d="M7 4h-6c-0.55 0-1 0.45-1 1v22c0 0.55 0.45 1 1 1h6c0.55 0 1-0.45 1-1v-22c0-0.55-0.45-1-1-1zM6 10h-4v-2h4v2z"></path>
<path d="M17 4h-6c-0.55 0-1 0.45-1 1v22c0 0.55 0.45 1 1 1h6c0.55 0 1-0.45 1-1v-22c0-0.55-0.45-1-1-1zM16 10h-4v-2h4v2z"></path>
<path d="M23.909 5.546l-5.358 2.7c-0.491 0.247-0.691 0.852-0.443 1.343l8.999 17.861c0.247 0.491 0.852 0.691 1.343 0.443l5.358-2.7c0.491-0.247 0.691-0.852 0.443-1.343l-8.999-17.861c-0.247-0.491-0.852-0.691-1.343-0.443z"></path>
</symbol>
<symbol id="icon-laptop" viewBox="0 0 32 32">
<path d="M28 22v-16c0-1.1-0.9-2-2-2h-20c-1.1 0-2 0.9-2 2v16h-4v6h32v-6h-4zM20 26h-8v-2h8v2zM26 22h-20v-15.996c0.001-0.001 0.002-0.003 0.004-0.004h19.993c0.001 0.001 0.003 0.002 0.004 0.004v15.996z"></path>
</symbol>
</defs>
</svg>
