<?xml version="1.0" standalone="no"?>
<!DOCTYPE svg PUBLIC "-//W3C//DTD SVG 20010904//EN"
 "http://www.w3.org/TR/2001/REC-SVG-20010904/DTD/svg10.dtd">
<svg version="1.0" xmlns="http://www.w3.org/2000/svg"
 width="225.000000pt" height="225.000000pt" viewBox="0 0 225.000000 225.000000"
 preserveAspectRatio="xMidYMid meet">

<g transform="translate(0.000000,225.000000) scale(0.100000,-0.100000)"
fill="#fff" stroke="none">
<path d="M300 1205 c0 -12 22 -15 118 -17 96 -2 117 -6 117 -18 0 -12 -20 -16
-104 -18 -58 -1 -111 -8 -118 -14 -18 -15 -16 -83 3 -102 12 -13 41 -16 150
-16 l134 0 0 88 c0 55 -4 92 -12 100 -8 8 -56 12 -150 12 -115 0 -138 -2 -138
-15z m238 -117 l-3 -33 -82 -3 -83 -3 0 36 0 35 86 0 85 0 -3 -32z"/>
<path d="M658 1209 c-15 -8 -18 -25 -18 -99 l0 -90 30 0 30 0 0 85 0 85 85 0
85 0 0 -85 0 -85 35 0 35 0 0 84 c0 115 -1 116 -148 116 -64 0 -125 -5 -134
-11z"/>
<path d="M970 1205 c0 -10 11 -15 35 -15 24 0 35 5 35 15 0 10 -11 15 -35 15
-24 0 -35 -5 -35 -15z"/>
<path d="M1092 1208 c-8 -8 -12 -45 -12 -100 l0 -88 30 0 30 0 0 85 0 85 205
0 205 0 0 -85 0 -85 30 0 30 0 0 90 c0 78 -2 91 -19 100 -29 15 -483 14 -499
-2z"/>
<path d="M1662 1208 c-7 -7 -12 -43 -12 -90 0 -66 3 -79 19 -88 11 -5 78 -10
150 -10 109 0 131 3 131 15 0 12 -22 15 -117 17 -103 3 -118 5 -121 21 -3 15
7 17 105 17 72 0 113 4 121 12 7 7 12 30 12 53 0 23 -5 46 -12 53 -17 17 -259
17 -276 0z m218 -53 l0 -35 -85 0 -85 0 0 28 c0 16 3 32 7 35 3 4 42 7 85 7
l78 0 0 -35z"/>
<path d="M970 1085 l0 -65 35 0 35 0 0 65 0 65 -35 0 -35 0 0 -65z"/>
</g>
</svg>
