<svg width="20" height="18" viewBox="0 0 20 18" fill="none" xmlns="http://www.w3.org/2000/svg">
<path d="M9.18699 0.547508C9.5083 -0.12583 10.4667 -0.12583 10.788 0.547508L12.8458 4.85989C12.9751 5.13087 13.2327 5.31804 13.5304 5.35728L18.2676 5.98174C19.0073 6.07924 19.3035 6.99078 18.7624 7.50443L15.2969 10.7941C15.0792 11.0008 14.9808 11.3036 15.0354 11.5989L15.9054 16.2972C16.0413 17.0308 15.2659 17.5942 14.6102 17.2383L10.4106 14.959C10.1467 14.8158 9.8283 14.8158 9.56441 14.959L5.36489 17.2383C4.70917 17.5942 3.93377 17.0308 4.06961 16.2972L4.9396 11.5989C4.99427 11.3036 4.89586 11.0008 4.6781 10.7941L1.21267 7.50443C0.671572 6.99078 0.967751 6.07924 1.70742 5.98174L6.44462 5.35728C6.7423 5.31804 6.99992 5.13087 7.12923 4.85989L9.18699 0.547508Z" fill="#FFC700"/>
</svg>
