<svg width="19" height="18" viewBox="0 0 19 18" fill="none" xmlns="http://www.w3.org/2000/svg">
<path d="M8.34486 0.547508C8.66616 -0.12583 9.62461 -0.12583 9.94592 0.547508L12.0037 4.85989C12.133 5.13087 12.3906 5.31804 12.6883 5.35728L17.4255 5.98174C18.1652 6.07924 18.4613 6.99078 17.9202 7.50443L14.4548 10.7941C14.237 11.0008 14.1386 11.3036 14.1933 11.5989L15.0633 16.2972C15.1991 17.0308 14.4237 17.5942 13.768 17.2383L9.5685 14.959C9.30461 14.8158 8.98617 14.8158 8.72228 14.959L4.52276 17.2383C3.86704 17.5942 3.09164 17.0308 3.22748 16.2972L4.09746 11.5989C4.15213 11.3036 4.05373 11.0008 3.83597 10.7941L0.370535 7.50443C-0.17056 6.99078 0.125618 6.07924 0.865289 5.98174L5.60249 5.35728C5.90017 5.31804 6.15779 5.13087 6.2871 4.85989L8.34486 0.547508Z" fill="#171C23"/>
</svg>
